PathFileType	4	(X/Y/Z)	C:\Users\°ÂÌØÂü\Desktop\20201223\Trimmed_Trimmed_Trimmed_Trimmed_bx_n_0_501.trc
DataRate	CameraRate	NumFrames	NumMarkers	Units	OrigDataRate	OrigDataStartFrame	OrigNumFrames
50.00	50.00	       4	43	mm	50.00	402	       802
Frame#	Time	Top.Head			R.Acromium			L.Acromium			Sternum			R.ASIS			L.ASIS			V.Sacral			R.Thigh.Upper			R.Thigh.Front			R.Thigh.Rear			R.Knee.Lat			R.Knee.Med			R.Shank.Upper			R.Shank.Front			R.Shank.Rear			R.Ankle.Lat			R.Midfoot.Lat			R.Toe.Lat			R.Toe.Tip			R.Toe.Med			R.Ankle.Med			R.Midfoot.Sup			R.Heel			L.Thigh.Upper			L.Thigh.Front			L.Thigh.Rear			L.Knee.Lat			L.Knee.Med			L.Shank.Upper			L.Shank.Front			L.Shank.Rear			L.Ankle.Lat			L.Midfoot.Lat			L.Toe.Lat			L.Toe.Tip			L.Toe.Med			L.Ankle.Med			L.Midfoot.Sup			L.Heel			origin1 front left			origin2 front right			origin 3 back right			origin 4 back leftt			
		X1	Y1	Z1	X2	Y2	Z2	X3	Y3	Z3	X4	Y4	Z4	X5	Y5	Z5	X6	Y6	Z6	X7	Y7	Z7	X8	Y8	Z8	X9	Y9	Z9	X10	Y10	Z10	X11	Y11	Z11	X12	Y12	Z12	X13	Y13	Z13	X14	Y14	Z14	X15	Y15	Z15	X16	Y16	Z16	X17	Y17	Z17	X18	Y18	Z18	X19	Y19	Z19	X20	Y20	Z20	X21	Y21	Z21	X22	Y22	Z22	X23	Y23	Z23	X24	Y24	Z24	X25	Y25	Z25	X26	Y26	Z26	X27	Y27	Z27	X28	Y28	Z28	X29	Y29	Z29	X30	Y30	Z30	X31	Y31	Z31	X32	Y32	Z32	X33	Y33	Z33	X34	Y34	Z34	X35	Y35	Z35	X36	Y36	Z36	X37	Y37	Z37	X38	Y38	Z38	X39	Y39	Z39	X40	Y40	Z40	X41	Y41	Z41	X42	Y42	Z42	X43	Y43	Z43	

402	8.020	-277.94165	242.97331	1649.10498	-414.85016	60.29929	1389.56567	-414.72003	418.93210	1387.03467	-470.73608	240.38286	1199.19189	-679.32898	127.93143	1000.54535	-645.14026	346.31708	992.79114	-843.92151	253.00078	1090.09302	-765.40656	77.79864	825.93286	-668.83704	126.30882	799.55579	-759.62201	92.02290	709.45746	-751.26947	112.85040	591.83563	-720.49091	219.33093	552.89966	-765.85358	112.26971	527.32745	-686.20441	162.56148	526.75000	-763.68896	104.15852	475.09915	-697.84003	134.56847	209.95222	-617.38727	76.65389	165.13322	-571.14111	55.43230	163.23198	-495.73288	98.30862	161.54231	-537.24493	148.67166	163.57132	-650.67554	210.99940	224.79576	-600.50519	186.35767	174.06363	-728.34894	201.93727	168.41068	-735.98090	442.69647	851.91486	-653.08228	380.12265	815.24817	-738.38715	437.41800	733.32928	-731.97833	416.57336	597.00043	-721.68451	306.99033	560.04657	-740.26312	421.53690	550.86353	-681.55859	362.92767	534.09668	-779.79108	429.14685	478.98083	-681.73767	424.00873	214.02747	-579.14026	465.09506	164.85313	-540.57556	475.13565	159.37352	-486.11362	418.75101	167.52049	-526.41858	382.21298	177.11887	-653.41974	331.49759	210.88576	-597.79218	347.01550	172.18350	-736.17413	356.15384	161.50209	-444.06790	448.41797	146.40152	-450.42545	74.96808	143.32294	-806.52032	82.43844	141.41014	-799.79297	456.73093	145.01875	
403	8.040	-273.53607	242.66054	1643.11218	-412.13821	59.92314	1384.75330	-412.03174	418.50278	1382.22900	-470.31396	239.93286	1195.15857	-681.20380	127.72150	999.49969	-646.98370	346.16504	991.31647	-845.22144	252.84883	1090.20642	-767.34198	77.67136	825.58978	-670.66614	126.18321	799.31952	-761.30084	91.90050	709.14197	-752.50427	112.81716	591.59137	-721.63977	219.32413	552.73187	-766.90247	112.21119	527.06494	-687.26709	162.54207	526.70636	-764.57928	104.10912	474.86319	-697.95056	134.50380	209.90726	-617.38788	76.60787	165.10263	-571.12494	55.42372	163.22887	-495.73349	98.33619	161.51401	-537.23944	148.69357	163.57088	-650.80194	210.95840	224.83728	-600.53998	186.34123	174.10985	-728.37885	201.89053	168.42313	-737.68451	442.66629	851.66553	-654.75970	379.95065	815.08667	-739.76166	437.53445	733.12622	-733.03729	416.50739	596.74402	-722.76794	307.02975	559.85339	-741.20654	421.53683	550.68768	-682.51471	362.89554	533.95953	-780.49603	429.27295	478.68982	-681.83197	424.10123	214.03203	-579.14288	465.07568	164.83563	-540.53210	475.08481	159.38603	-486.10376	418.68372	167.54070	-526.41974	382.16739	177.08881	-653.57349	331.58185	210.82210	-597.82996	347.03476	172.17897	-736.19122	356.20663	161.50609	-444.08817	448.42508	146.38593	-450.42630	74.97089	143.31795	-806.54590	82.44557	141.41461	-799.77002	456.75739	145.01303	
404	8.060	-269.44067	242.34117	1637.42017	-409.59668	59.56380	1380.17346	-409.52484	418.08676	1377.66711	-469.91785	239.50266	1191.35181	-682.94788	127.52886	998.50604	-648.73163	345.97760	989.82324	-846.38544	252.74049	1090.31555	-769.15601	77.56414	825.26923	-672.37891	126.07494	799.08984	-762.87512	91.79939	708.84528	-753.64844	112.79990	591.35864	-722.70422	219.32295	552.56781	-767.86877	112.16309	526.81604	-688.24951	162.54179	526.65759	-765.40997	104.08141	474.65555	-698.04584	134.44456	209.86720	-617.38568	76.56873	165.07718	-571.10864	55.41592	163.22519	-495.72794	98.36489	161.48784	-537.23444	148.72281	163.56709	-650.91052	210.92999	224.86543	-600.56561	186.32695	174.14621	-728.40234	201.84627	168.43687	-739.23956	442.65265	851.43872	-656.29779	379.78595	814.92767	-741.00330	437.64908	732.93915	-733.99878	416.45859	596.50482	-723.78082	307.08423	559.67780	-742.06268	421.54718	550.51794	-683.40338	362.87152	533.83160	-781.12317	429.41653	478.41144	-681.94073	424.21619	214.03246	-579.14160	465.05533	164.81813	-540.48450	475.03290	159.39436	-486.08322	418.59952	167.55829	-526.42535	382.11154	177.04829	-653.71576	331.65213	210.76125	-597.86432	347.05573	172.17662	-736.19073	356.26480	161.51186	-444.10654	448.44135	146.37828	-450.42648	74.97375	143.31578	-806.56775	82.45049	141.41502	-799.75134	456.78772	145.01581	
405	8.080	-265.65009	242.01581	1632.04773	-407.23798	59.22206	1375.85449	-407.20557	417.68564	1373.37329	-469.55115	239.09645	1187.79126	-684.56451	127.35762	997.56860	-650.39362	345.75803	988.32916	-847.42242	252.67732	1090.41870	-770.84222	77.47662	824.97400	-673.97137	125.98721	798.86981	-764.33948	91.71933	708.56683	-754.69788	112.79669	591.14105	-723.68311	219.32259	552.40607	-768.74976	112.12571	526.58069	-689.14954	162.55843	526.60083	-766.17834	104.07022	474.47610	-698.12341	134.39180	209.83348	-617.38171	76.53728	165.05528	-571.09247	55.40978	163.22141	-495.71689	98.39548	161.46640	-537.23102	148.75745	163.55984	-651.00385	210.90985	224.88506	-600.58032	186.31512	174.17419	-728.42047	201.80563	168.45087	-740.65717	442.65720	851.23456	-657.70532	379.63007	814.76770	-742.12549	437.75687	732.76318	-734.87372	416.42932	596.28442	-724.72443	307.14627	559.52051	-742.83875	421.56525	550.34833	-684.22705	362.85498	533.71857	-781.68524	429.56790	478.14389	-682.06195	424.34933	214.02780	-579.13568	465.03476	164.80087	-540.43530	474.98257	159.39874	-486.05487	418.50278	167.57274	-526.43463	382.04880	177.00006	-653.84326	331.70654	210.70506	-597.89423	347.07690	172.17679	-736.17548	356.32611	161.51874	-444.12054	448.46521	146.37854	-450.42563	74.97593	143.31606	-806.58356	82.45532	141.40900	-799.73822	456.81888	145.02513	
